Coordinates
version=1
nRows=65
nColumns=12
inDegrees=yes

Units are S.I. units (second, meters, Newtons, ...)
Angles are in degrees

endheader
time	SC_y	SC_z	SC_x	AC_y	AC_z	AC_x	GH_y	GH_z	GH_yy	EL_x	PS_y
       0.0              -58.25          20.19          10.37          34.68         -6.748         -8.419         -107.2          59.37          24.98          56.83          83.42
  0.005086              -58.25          20.19          10.38          34.68         -6.749         -8.417         -107.2          59.37           25.0          56.83          83.41
   0.01017              -58.25          20.19          10.38          34.68          -6.75         -8.415         -107.2          59.36          25.02          56.84          83.41
   0.01526              -58.25          20.19          10.38          34.69         -6.751         -8.414         -107.2          59.36          25.04          56.84           83.4
   0.02035              -58.25          20.19          10.38          34.69         -6.752         -8.411         -107.2          59.35          25.06          56.85          83.39
   0.02543              -58.25          20.19          10.38          34.69         -6.753         -8.409         -107.2          59.35          25.09          56.86          83.39
   0.03052              -58.25          20.19          10.39           34.7         -6.754         -8.407         -107.2          59.34          25.11          56.86          83.38
    0.0356              -58.25          20.18          10.39           34.7         -6.756         -8.404         -107.3          59.34          25.14          56.87          83.37
   0.04069              -58.25          20.18          10.39           34.7         -6.757         -8.402         -107.3          59.33          25.17          56.88          83.36
   0.04578              -58.25          20.18          10.39          34.71         -6.759         -8.399         -107.3          59.32           25.2          56.89          83.35
   0.05086              -58.25          20.18           10.4          34.71          -6.76         -8.396         -107.3          59.32          25.24           56.9          83.34
   0.05595              -58.24          20.18           10.4          34.72         -6.762         -8.393         -107.3          59.31          25.27          56.91          83.33
   0.06104              -58.24          20.18           10.4          34.72         -6.764         -8.389         -107.4           59.3          25.31          56.92          83.32
   0.06612              -58.24          20.17          10.41          34.73         -6.766         -8.385         -107.4          59.29          25.35          56.93          83.31
   0.07121              -58.24          20.17          10.41          34.74         -6.768         -8.381         -107.4          59.28           25.4          56.95           83.3
   0.07629              -58.24          20.17          10.41          34.74         -6.771         -8.377         -107.4          59.27          25.45          56.96          83.28
   0.08138              -58.24          20.17          10.42          34.75         -6.773         -8.372         -107.5          59.26           25.5          56.98          83.27
   0.08647              -58.24          20.16          10.42          34.76         -6.776         -8.366         -107.5          59.25          25.56           57.0          83.25
   0.09155              -58.24          20.16          10.43          34.77         -6.779         -8.361         -107.5          59.24          25.63          57.01          83.23
   0.09664              -58.24          20.16          10.43          34.78         -6.782         -8.354         -107.6          59.22           25.7          57.03          83.21
    0.1017              -58.23          20.15          10.44          34.79         -6.786         -8.347         -107.6          59.21          25.77          57.06          83.19
    0.1068              -58.23          20.15          10.45           34.8          -6.79         -8.339         -107.6          59.19          25.86          57.08          83.16
    0.1119              -58.23          20.14          10.46          34.82         -6.795         -8.331         -107.7          59.17          25.95          57.11          83.14
     0.117              -58.23          20.14          10.46          34.83           -6.8         -8.321         -107.7          59.15          26.06          57.14          83.11
    0.1221              -58.22          20.13          10.47          34.85         -6.805         -8.311         -107.8          59.12          26.17          57.17          83.07
    0.1272              -58.22          20.12          10.48          34.87         -6.812         -8.299         -107.9           59.1           26.3          57.21          83.04
    0.1322              -58.22          20.12           10.5          34.89         -6.819         -8.286         -108.0          59.07          26.45          57.25          82.99
    0.1373              -58.21          20.11          10.51          34.91         -6.826         -8.271         -108.0          59.03          26.61           57.3          82.95
    0.1424              -58.21           20.1          10.53          34.93         -6.835         -8.255         -108.1           59.0          26.79          57.35          82.89
    0.1475              -58.21          20.09          10.54          34.96         -6.845         -8.236         -108.3          58.95           27.0          57.41          82.83
    0.1526               -58.2          20.08          10.56           35.0         -6.857         -8.214         -108.4           58.9          27.24          57.48          82.77
    0.1577              -58.19          20.06          10.59          35.04          -6.87          -8.19         -108.5          58.85          27.51          57.56          82.69
    0.1628              -58.19          20.05          10.61          35.08         -6.885         -8.161         -108.7          58.78          27.83          57.66           82.6
    0.1678              -58.18          20.03          10.64          35.13         -6.903         -8.128         -108.9          58.71          28.19          57.76          82.49
    0.1729              -58.17          20.01          10.68          35.19         -6.923         -8.089         -109.1          58.62          28.62          57.89          82.37
     0.178              -58.16          19.98          10.72          35.27         -6.948         -8.043         -109.4          58.51          29.13          58.04          82.22
    0.1831              -58.14          19.95          10.77          35.35         -6.977         -7.988         -109.7          58.39          29.73          58.21          82.05
    0.1882              -58.13          19.91          10.83          35.45         -7.011         -7.923         -110.1          58.24          30.45          58.42          81.84
    0.1933              -58.11          19.87           10.9          35.58         -7.053         -7.844         -110.6          58.06          31.32          58.68          81.59
    0.1984              -58.08          19.82          10.99          35.73         -7.105         -7.748         -111.1          57.84          32.39          58.99          81.28
    0.2035              -58.05          19.75           11.1          35.91         -7.168         -7.629         -111.8          57.57           33.7          59.37           80.9
    0.2085              -58.02          19.67          11.24          36.15         -7.247          -7.48         -112.7          57.23          35.34          59.85          80.43
    0.2136              -57.97          19.56          11.41          36.44         -7.346         -7.293         -113.8          56.81           37.4          60.45          79.83
    0.2187              -57.91          19.43          11.63          36.81         -7.473         -7.055         -115.2          56.26          40.02          61.21          79.08
    0.2238              -57.84          19.26          11.91          37.29         -7.635         -6.751         -117.0          55.57          43.38          62.19          78.11
    0.2289              -57.74          19.04          12.27           37.9         -7.842          -6.36         -119.3          54.68          47.69          63.45          76.86
     0.234              -57.61          18.76          12.73          38.68         -8.107         -5.861         -122.2          53.55          53.19          65.06          75.27
    0.2391              -57.46          18.41           13.3          39.66         -8.441         -5.233         -125.9          52.12          60.11          67.08          73.28
    0.2441              -57.27          17.98          14.01          40.86         -8.847         -4.469         -130.4          50.38          68.55          69.54          70.84
    0.2492              -57.05          17.48          14.82          42.25         -9.318         -3.582         -135.6          48.36          78.32          72.39          68.02
    0.2543              -56.81          16.94           15.7          43.75         -9.828         -2.622         -141.3          46.17          88.91          75.48          64.96
    0.2594              -56.57           16.4          16.59          45.25         -10.34         -1.663         -146.9          43.99          99.49          78.57          61.91
    0.2645              -56.35          15.91           17.4          46.64         -10.81        -0.7761         -152.2          41.97          109.3          81.42          59.09
    0.2696              -56.16          15.48           18.1          47.83         -11.22       -0.01137         -156.7          40.23          117.7          83.88          56.65
    0.2747               -56.0          15.13          18.68          48.82         -11.55         0.6162         -160.3           38.8          124.6           85.9          54.65
    0.2797              -55.87          14.85          19.14           49.6         -11.81          1.115         -163.3          37.67          130.1          87.51          53.07
    0.2848              -55.78          14.63           19.5          50.21         -12.02          1.506         -165.6          36.78          134.4          88.76          51.82
    0.2899               -55.7          14.46          19.78          50.68         -12.18           1.81         -167.4          36.08          137.8          89.74          50.85
     0.295              -55.64          14.32           20.0          51.06         -12.31          2.048         -168.8          35.54          140.4          90.51          50.09
    0.3001               -55.6          14.22          20.17          51.35         -12.41          2.235         -169.9          35.12          142.5          91.11           49.5
    0.3052              -55.56          14.14          20.31          51.58         -12.49          2.384         -170.7          34.78          144.1          91.59          49.03
    0.3103              -55.53          14.07          20.42          51.77         -12.55          2.503         -171.4          34.51          145.4          91.97          48.65
    0.3154               -55.5          14.01           20.5          51.92          -12.6            2.6         -172.0          34.29          146.5          92.28          48.34
    0.3204              -55.48          13.97          20.58          52.04         -12.65          2.679         -172.5          34.11          147.4          92.54          48.09
    0.3255              -55.47          13.93          20.64          52.15         -12.68          2.744         -172.9          33.96          148.1          92.75          47.88
